<?xml version="1.0" encoding="utf-8"?>
<!-- Generator: Adobe Illustrator 19.1.0, SVG Export Plug-In . SVG Version: 6.00 Build 0)  -->
<svg version="1.1" xmlns="http://www.w3.org/2000/svg" xmlns:xlink="http://www.w3.org/1999/xlink" x="0px" y="0px"
	 viewBox="0 0 1280 1280" enable-background="new 0 0 1280 1280" xml:space="preserve">
<g id="Layer_2">
</g>
<g id="Layer_1">
	<g>
		<path fill="#EFEDED" d="M310.7,1046.3h530.9c90.4-77.6,142.1-190.1,142.1-309.2c0-134.5-66.1-259.8-176.9-336H345.5
			c-110.9,76.2-176.9,201.6-176.9,336C168.5,856.3,220.3,968.7,310.7,1046.3L310.7,1046.3z"/>
		<path fill="#EFEDED" d="M248.5,233.7H798V301H341.7c-0.2,0-0.3-0.1-0.5-0.1l-4.1,0.1C295.3,300.9,259.4,272.8,248.5,233.7z"/>
		<path fill-rule="evenodd" clip-rule="evenodd" fill="#8D4421" d="M911.2,986.7c-19.6,26.6-42.3,50.8-67.6,72H308.7
			c-25.3-21.2-48-45.4-67.6-72H911.2z"/>
		<path fill="#CCCECF" d="M1090.7,417.1C1049.5,344.8,983,305.7,893.4,301l-69.9-0.2v-79.9c0-7-5.7-12.7-12.7-12.7H233
			c-3.6,0-7.1,1.6-9.5,4.3c-2.4,2.7-3.6,6.3-3.1,9.9c6.5,56,51.9,99,108.4,103.6v55.8c-116.4,81.1-185.7,213.4-185.7,355.3
			c0,128.2,56.4,249.1,154.7,331.7c2.3,1.9,5.2,3,8.2,3h540.3c3,0,5.9-1.1,8.2-3c98.3-82.6,154.7-203.5,154.7-331.7
			c0-131.2-59.3-254-160.1-335.9l40.6,0c53.4,3.3,90.6,24.7,113.9,65.4c26.9,47.1,37.5,120.1,31.6,216.3c-0.2,2-0.4,4-0.4,6.3
			c0,27.7,22.5,50.2,50.2,50.2c24.9,0,45.9-18.2,49.6-42.6c0.2-0.7,0.3-1.4,0.3-2.2C1142.8,575.5,1127.9,482.2,1090.7,417.1z
			 M248.5,233.7H798V301H341.7c-0.2,0-0.3-0.1-0.5-0.1l-4.1,0.1C295.3,300.9,259.4,272.8,248.5,233.7z M983.7,737.1
			c0,119.1-51.7,231.6-142.1,309.2H310.7c-90.4-77.6-142.1-190.1-142.1-309.2c0-134.5,66.1-259.8,176.9-336h461.4
			C917.7,477.3,983.7,602.6,983.7,737.1z"/>
		<path fill="#3F1E11" d="M1110,691.4c0,0.2-0.1,0.4-0.1,0.6c-1.5,12.4-12,21.7-24.5,21.7c-13.6,0-24.7-11.1-24.7-24.9
			c0-1,0.1-2,0.3-3.7c6.3-102-5.4-179.8-34.8-231.2c-27.5-48.1-72.7-74.4-135.2-78.2h-77.8c-0.6-0.1-1.3-0.1-2-0.1H354.8v-49.1
			h456.5c0.7,0,1.3,0,1.9-0.1l76.8,0l2.2,0.2c81.8,4.3,139.6,38.1,176.8,103.3C1103.6,490.1,1117.4,578.2,1110,691.4z"/>
	</g>
</g>
</svg>
